<?xml version="1.0" encoding="iso-8859-1"?>
<!-- Uploaded to: SVG Repo, www.svgrepo.com, Generator: SVG Repo Mixer Tools -->
<svg version="1.1" id="Layer_1" xmlns="http://www.w3.org/2000/svg" xmlns:xlink="http://www.w3.org/1999/xlink" 
	 viewBox="0 0 512 512" xml:space="preserve">
<circle style="fill:#334D5C;" cx="256" cy="256" r="256"/>
<path style="opacity:0.1;enable-background:new    ;" d="M511.76,265.381L391.307,144.928H272.8
	c-6.688,0-12.325,4.229-14.512,10.144l-5.435-5.435c-2.832-2.901-6.773-4.709-11.147-4.709H123.253v17.173h-7.467
	c-3.573,0-6.453,2.88-6.453,6.4v179.84c0,1.781,0.747,3.392,1.936,4.555l-0.011,0.005l158.709,158.709
	C401.749,504.517,506.987,397.765,511.76,265.381z"/>
<path style="fill:#DC8744;" d="M396.224,162.08H115.776c-3.557,0-6.443,2.885-6.443,6.443v179.792c0,3.557,2.885,6.443,6.443,6.443
	h124.016c2.016,7.088,8.469,12.315,16.208,12.315c7.739,0,14.192-5.227,16.208-12.315h124.016c3.557,0,6.443-2.885,6.443-6.443
	V168.523C402.667,164.965,399.781,162.08,396.224,162.08z"/>
<path style="fill:#D5D6DB;" d="M272.795,144.928c-8.581,0-15.536,6.955-15.536,15.531v189.509h0.224
	c1.083-7.52,7.493-13.312,15.312-13.312h118.496V144.928H272.795z"/>
<g>
	<path style="fill:#EBF0F3;" d="M241.728,144.928c8.581,0,15.536,6.955,15.536,15.531v189.509h-0.224
		c-1.083-7.52-7.493-13.312-15.312-13.312H123.227V144.928H241.728z"/>
	<path style="fill:#EBF0F3;" d="M272.795,144.928c-8.581,0-15.536,6.955-15.536,15.531v189.509h0.224
		c1.083-7.52,7.493-13.312,15.312-13.312h107.829V144.928H272.795z"/>
</g>
<path style="fill:#FFFFFF;" d="M241.728,144.928c8.581,0,15.536,6.955,15.536,15.531v189.509h-0.224
	c-1.083-7.52-7.493-13.312-15.312-13.312H133.893V144.928H241.728z"/>
<g>
	<rect x="146.187" y="223.104" style="fill:#EBF0F3;" width="98.779" height="5.205"/>
	<rect x="146.187" y="248.699" style="fill:#EBF0F3;" width="98.779" height="5.205"/>
	<rect x="146.187" y="274.293" style="fill:#EBF0F3;" width="98.779" height="5.205"/>
	<rect x="146.187" y="299.893" style="fill:#EBF0F3;" width="98.779" height="5.205"/>
</g>
<g>
	<rect x="269.547" y="171.893" style="fill:#D5D6DB;" width="98.779" height="5.205"/>
	<rect x="269.547" y="197.493" style="fill:#D5D6DB;" width="98.779" height="5.205"/>
	<rect x="269.547" y="223.104" style="fill:#D5D6DB;" width="98.779" height="5.205"/>
	<rect x="269.547" y="248.699" style="fill:#D5D6DB;" width="98.779" height="5.205"/>
	<rect x="269.547" y="274.293" style="fill:#D5D6DB;" width="98.779" height="5.205"/>
	<rect x="269.547" y="299.893" style="fill:#D5D6DB;" width="98.779" height="5.205"/>
</g>
<g>
	<polygon style="fill:#E56353;" points="353.413,202.715 336.176,192.619 318.944,202.715 318.944,144.928 353.413,144.928 	"/>
	<path style="fill:#E56353;" d="M223.899,186.128c0.293-1.477,0.459-3.003,0.459-4.56c0-5.013-1.605-9.643-4.283-13.451
		l-19.163,13.451L223.899,186.128z"/>
</g>
<path style="fill:#44C4A1;" d="M213.232,166.384c-4.245-6.032-11.227-10-19.163-10v23.451L213.232,166.384z"/>
<path style="fill:#FCD462;" d="M190.245,182.731V159.28c-12.949,0-23.451,10.501-23.451,23.451s10.501,23.451,23.451,23.451
	c11.387,0,20.864-8.123,22.987-18.885L190.245,182.731z"/>
</svg>